{
  "accessors": [
    {
      "bufferView": 2,
      "componentType": 5126,
      "count": 65532,
      "max": [
        1.9175829887390137,
        0.16603100299835205,
        0.81260401010513306
      ],
      "min": [
        -1.6813499927520752,
        -1.7558269500732422,
        -2.8459229469299316
      ],
      "type": "VEC3"
    },
    {
      "bufferView": 2,
      "byteOffset": 786384,
      "componentType": 5126,
      "count": 65532,
      "max": [
        0.99999499320983887,
        0.9999997615814209,
        0.99999213218688965
      ],
      "min": [
        -0.99996834993362427,
        -0.99996650218963623,
        -0.99999713897705078
      ],
      "type": "VEC3"
    },
    {
      "bufferView": 1,
      "componentType": 5126,
      "count": 65532,
      "max": [
        1,
        0.96422499418258667
      ],
      "min": [
        0.00010599999950500205,
        0
      ],
      "type": "VEC2"
    },
    {
      "bufferView": 0,
      "componentType": 5125,
      "count": 338994,
      "max": [
        65531
      ],
      "min": [
        0
      ],
      "type": "SCALAR"
    },
    {
      "bufferView": 2,
      "byteOffset": 1572768,
      "componentType": 5126,
      "count": 32013,
      "max": [
        1.9166300296783447,
        0.16358500719070435,
        0.8077239990234375
      ],
      "min": [
        -1.6813499927520752,
        -1.7574269771575928,
        -2.8459229469299316
      ],
      "type": "VEC3"
    },
    {
      "bufferView": 2,
      "byteOffset": 1956924,
      "componentType": 5126,
      "count": 32013,
      "max": [
        0.99966037273406982,
        0.9999922513961792,
        0.99999213218688965
      ],
      "min": [
        -0.99999463558197021,
        -0.99996650218963623,
        -0.99999713897705078
      ],
      "type": "VEC3"
    },
    {
      "bufferView": 1,
      "byteOffset": 524256,
      "componentType": 5126,
      "count": 32013,
      "max": [
        1,
        0.96010702848434448
      ],
      "min": [
        0.0032939999364316463,
        0.00082999997539445758
      ],
      "type": "VEC2"
    },
    {
      "bufferView": 0,
      "byteOffset": 1355976,
      "componentType": 5125,
      "count": 115752,
      "max": [
        32012
      ],
      "min": [
        0
      ],
      "type": "SCALAR"
    }
  ],
  "asset": {
    "extras": {
      "author": "Digital Archive of Natural History (DiNArDa) (https://sketchfab.com/disc3d)",
      "license": "CC0-1.0 (http://creativecommons.org/publicdomain/zero/1.0/)",
      "source": "https://sketchfab.com/3d-models/tytthaspis-sedecimpunctata-b14201002b5e4a22957819204be935d0",
      "title": "Tytthaspis sedecimpunctata"
    },
    "generator": "Sketchfab-7.80.0",
    "version": "2.0"
  },
  "bufferViews": [
    {
      "buffer": 0,
      "byteLength": 1818984,
      "byteOffset": 0,
      "name": "floatBufferViews",
      "target": 34963
    },
    {
      "buffer": 0,
      "byteLength": 780360,
      "byteOffset": 1818984,
      "byteStride": 8,
      "name": "floatBufferViews",
      "target": 34962
    },
    {
      "buffer": 0,
      "byteLength": 2341080,
      "byteOffset": 2599344,
      "byteStride": 12,
      "name": "floatBufferViews",
      "target": 34962
    }
  ],
  "buffers": [
    {
      "byteLength": 4940424,
      "uri": "scene.bin"
    }
  ],
  "images": [
    {
      "uri": "textures/Tytthapsis_neu2.1001_baseColor.png"
    }
  ],
  "materials": [
    {
      "doubleSided": true,
      "emissiveFactor": [
        0,
        0,
        0
      ],
      "name": "Tytthapsis_neu2.1001",
      "pbrMetallicRoughness": {
        "baseColorFactor": [
          1,
          1,
          1,
          1
        ],
        "baseColorTexture": {
          "index": 0,
          "texCoord": 0
        },
        "metallicFactor": 0,
        "roughnessFactor": 0.47712120287346116
      }
    }
  ],
  "meshes": [
    {
      "primitives": [
        {
          "attributes": {
            "NORMAL": 1,
            "POSITION": 0,
            "TEXCOORD_0": 2
          },
          "indices": 3,
          "material": 0,
          "mode": 4
        }
      ]
    },
    {
      "primitives": [
        {
          "attributes": {
            "NORMAL": 5,
            "POSITION": 4,
            "TEXCOORD_0": 6
          },
          "indices": 7,
          "material": 0,
          "mode": 4
        }
      ]
    }
  ],
  "nodes": [
    {
      "children": [
        1
      ],
      "name": "RootNode (gltf orientation matrix)",
      "rotation": [
        -0.70710678118654746,
        -0,
        -0,
        0.70710678118654757
      ]
    },
    {
      "children": [
        2
      ],
      "matrix": [
        0.96459656953811646,
        0.25727838277816772,
        0.057976976037025452,
        0,
        0.095880158245563507,
        -0.13731250166893005,
        -0.98587638139724731,
        0,
        -0.24568371474742889,
        0.956531822681427,
        -0.15711906552314758,
        0,
        -0.066855348646640778,
        0.19954599440097809,
        -1.8012583255767822,
        1
      ],
      "name": "RootNode (model correction matrix)"
    },
    {
      "children": [
        3,
        4
      ],
      "name": "Tytthapsis_neu2.obj.cleaner.materialmerger.gles"
    },
    {
      "mesh": 0,
      "name": ""
    },
    {
      "mesh": 1,
      "name": ""
    }
  ],
  "samplers": [
    {
      "magFilter": 9729,
      "minFilter": 9987,
      "wrapS": 10497,
      "wrapT": 10497
    }
  ],
  "scene": 0,
  "scenes": [
    {
      "name": "OSG_Scene",
      "nodes": [
        0
      ]
    }
  ],
  "textures": [
    {
      "sampler": 0,
      "source": 0
    }
  ]
}

